<?xml version="1.0" encoding="utf-8"?><!-- Uploaded to: SVG Repo, www.svgrepo.com, Generator: SVG Repo Mixer Tools -->
<svg fill="#000000" width="800px" height="800px" viewBox="0 -4.78 104.554 104.554" xmlns="http://www.w3.org/2000/svg">
  <path id="laptop02" d="M284,660.613a23.017,23.017,0,0,0-4.51.04,37.191,37.191,0,0,1-9.3-.018,25.517,25.517,0,0,0-4.214-.04c-4.015.135-8.029.356-12.043.45-1.293.031-2.593-.256-3.892-.352-1.8-.13-3.605-.305-5.41-.312a49.359,49.359,0,0,0-10.205.574,20.693,20.693,0,0,1-4.212.148q-3.316-.017-6.632-.135a8.5,8.5,0,0,1-1.763-.3,22.536,22.536,0,0,0-5.614-.987,2.857,2.857,0,0,1-2.855-2.248,11.321,11.321,0,0,1-.623-3.537c.019-4.637,0-5.109,2.119-9.242,1.416-2.77,3.046-5.43,4.679-8.074,1.211-1.965,2.6-3.819,3.883-5.735a6.852,6.852,0,0,1,3.149-2.681,18.45,18.45,0,0,1,5.153-1.532c2.6-.254,5.193-.526,7.8-.632s5.225-.024,7.84-.024v-.068c2.813.068,5.629.1,8.441.222a27.163,27.163,0,0,1,6.234.842,8.251,8.251,0,0,0,2.087.177c2.513.031,5.028.088,7.539.035a174.81,174.81,0,0,1,18.364.781c3.817.325,7.617.371,11.428.432.4.008.8.033,1.207.035a7.321,7.321,0,0,1,6.742,4.287c1.076,2.024,1.8,4.235,3.246,6.059,1.414,3.433,2.84,6.862,4.237,10.3a6.567,6.567,0,0,1,.29,3.568c-.274,1.678-.717,3.33-1.052,5a2.477,2.477,0,0,1-.944,1.477,9.271,9.271,0,0,1-5.63,1.826c-1.905.1-3.82.062-5.728.062-2.111,0-4.223-.017-6.332-.025a9.019,9.019,0,0,0-1.807.039,17.079,17.079,0,0,1-3.446.326C289.469,661.352,286.741,660.836,284,660.613Zm-2.476-9.355a25.808,25.808,0,0,1,3.007.2c4.079.527,8.141,1.24,12.233,1.6a51.056,51.056,0,0,0,13.173-.994c.3-.051.6-.086.891-.158a1.084,1.084,0,0,0,.941-1.3,3.436,3.436,0,0,0-.126-.892c-1.16-2.887-2.164-5.854-3.58-8.61-.863-1.68-1.971-3.252-2.682-5.028a3.122,3.122,0,0,0-2.2-1.908,9.369,9.369,0,0,0-2.065-.355c-.958-.033-1.916-.031-2.875-.029-.651,0-1.3,0-1.952-.006-1.307-.022-2.615-.039-3.919-.129-1.4-.1-2.793-.3-4.19-.426a25.926,25.926,0,0,1-3.006-.213,33.629,33.629,0,0,0-6.607-.47q-3.469-.039-6.937-.17c-1.4-.053-2.8-.268-4.206-.285-4.728-.06-9.455-.067-14.182-.094v-.162q-8.3.135-16.6.273h-.281a3.764,3.764,0,0,0-.922.069,22.8,22.8,0,0,1-6,.486,3.172,3.172,0,0,0-2.822,1.422c-1.241,1.7-2.564,3.345-3.645,5.138-1.135,1.886-1.831,4.016-3.084,5.858a4.743,4.743,0,0,0-.448,1.424c-.181.672-.335,1.354-.518,2.025-.44,1.592-.238,2.082,1.334,2.834a4.174,4.174,0,0,0,1.687.509q4.375.02,8.751-.1c1.8-.05,3.6-.25,5.409-.32,1.707-.066,3.421-.041,5.13-.074,2-.037,4.015-.3,5.978.416a4.44,4.44,0,0,0,1.5.09c.47,0,.94.006,1.411.014a17.981,17.981,0,0,0,5.19-.413,5.438,5.438,0,0,1,1.5-.1c2.192.041,4.384-.049,6.574-.139,2.823-.116,5.648-.232,8.479-.068,2.089.119,4.185.1,6.281.09.689,0,1.379-.01,2.068-.01Q280.867,651.25,281.521,651.257Zm-25.071-1.748h-.218a2.287,2.287,0,0,1-2.007-.643c-.689-.851-1.514-1.652-1.544-2.849A8.94,8.94,0,0,1,254.5,640.4a1.448,1.448,0,0,1,.73-.477c3.381-.986,6.762-1.824,10.333-.916a7.984,7.984,0,0,0,2.088.148c.3,0,.6-.009.9,0,1.3.039,2.605.05,3.909.1a2.748,2.748,0,0,1,2.38,1.6,11.391,11.391,0,0,1,1.165,7,1.43,1.43,0,0,1-1.522,1.181c-2.7.114-5.4.218-8.107.3-1.3.037-2.608,0-3.913,0v.164h-3.439Q257.739,649.512,256.45,649.509Zm5.026-3.442c1.983.176,3.959.437,5.936.662.006-.043.013-.086.017-.129,1.2,0,2.4.02,3.6-.006.718-.013,1.048-.416,1.008-1.158a8.7,8.7,0,0,0-.138-1.187,1.339,1.339,0,0,0-1.2-1.155,11.076,11.076,0,0,0-1.5-.035q-5.233.228-10.466.486a3.659,3.659,0,0,0-.868.182c-.4.125-.632.878-.5,1.6a.776.776,0,0,0,.827.676c.394.01.79.009,1.185.008h.254C260.242,646.008,260.861,646.014,261.475,646.068Zm31.629-19.5c-2.4-.143-4.807-.149-7.213-.408-2.493-.27-5.022-.173-7.533-.27-4.918-.2-9.838-.349-14.75-.651-2.9-.175-5.779-.743-8.678-.875-3.409-.155-6.83-.026-10.247-.018-1.93.594-4.029.08-5.932.9a1.426,1.426,0,0,1-.893.021,16.022,16.022,0,0,0-4.851-.447c-.58.005-1.16.011-1.739-.005a7.913,7.913,0,0,1-7.8-6.938,31.347,31.347,0,0,1-.388-4.183c-.087-3.919-.094-7.842-.142-11.762-.025-1.905-.189-3.8-.314-5.7a62.583,62.583,0,0,1,.105-11.437,38.262,38.262,0,0,0,.241-4.508,31.655,31.655,0,0,1,.677-6.276,7.709,7.709,0,0,1,6.466-5.882,13.952,13.952,0,0,1,1.517-.049c.3,0,.6,0,.894-.007.264-.01.533-.005.8,0a6.326,6.326,0,0,0,1.9-.158,13.492,13.492,0,0,1,4.073-.375c.337,0,.674.007,1.012,0a76.737,76.737,0,0,0,11.428-.571,8.642,8.642,0,0,1,1.2-.074c7.236-.094,14.472-.254,21.711,0,2.909.1,5.828-.027,8.742-.107,4.215-.115,8.429-.3,12.645-.42a20.624,20.624,0,0,1,6.5,1.058,7.069,7.069,0,0,1,4.557,4.084,11.742,11.742,0,0,1,.757,1.965,36.856,36.856,0,0,1,1.469,10.088c-.109,3.916-.024,7.838-.024,11.76h-.146c0,3.217-.076,6.435.023,9.648a61.787,61.787,0,0,1-.467,9.018A22.375,22.375,0,0,1,306,621.918a3.585,3.585,0,0,1-1.024,1.076,15.1,15.1,0,0,1-4.5,2.4,21.559,21.559,0,0,1-6.538,1.2Q293.526,626.595,293.1,626.57ZM268.433,620.5c3.822.053,7.646.053,11.465.2,3.11.112,6.213.408,9.32.621l.009-.168c1.908,0,3.82-.065,5.725.023a6.311,6.311,0,0,0,3.424-.953,9.564,9.564,0,0,0,3.991-3.991,13.064,13.064,0,0,0,1.654-6.32c-.071-7.744-.008-15.491.013-23.239a16.54,16.54,0,0,1,.134-3.609c.436-1.873-.113-3.58-.487-5.336-.819-3.85-4.406-5.854-7.711-6.061-1.9-.122-3.82-.014-5.733-.013-4.807.013-9.6.379-14.412.436-7.539.086-15.086-.085-22.613.536a8.953,8.953,0,0,1-1.492-.129,65.188,65.188,0,0,0-15.932.5,37.541,37.541,0,0,0-4.364,1.142,2.325,2.325,0,0,0-1.687,1.942c-.239,1.281-.527,2.56-.644,3.853-.24,2.7-.447,5.405-.553,8.114-.277,7.123-.349,14.251-.662,21.371-.044,1,.033,2.009.054,3.013a10.094,10.094,0,0,0,1.531,4.832,3.3,3.3,0,0,0,1.291,1.2,8.86,8.86,0,0,0,2.262.806,33.208,33.208,0,0,0,11.078.375c.9-.113,1.8-.2,2.7-.271,5.75-.459,11.438.553,17.159.727a1.055,1.055,0,0,1,.3.045,10.187,10.187,0,0,0,3.381.363l.4,0Zm-.466-6.509c-1.488-.178-2.975-.409-4.469-.518-1.4-.1-2.808-.092-4.215-.111-.584-.009-1.168-.008-1.752-.008-.923,0-1.846,0-2.768-.033-1.487-.057-1.949-.494-2.2-1.922a4.252,4.252,0,0,0-.151-1.188,9.236,9.236,0,0,1-.971-4.957c-.821-2.023-.6-4.15-.55-6.241a37.732,37.732,0,0,1,.47-3.868,1.921,1.921,0,0,1,1.58-1.614c.574-.167,1.182-.225,1.762-.377a1.152,1.152,0,0,0,.986-1.3c.013-.6-.014-1.207-.005-1.809a11.211,11.211,0,0,1,2.91-7.406,8.738,8.738,0,0,1,5-2.519,19.226,19.226,0,0,0,2.384-.247,3.567,3.567,0,0,1,4.046,1.207,12.045,12.045,0,0,1,3.694,7.386,12.487,12.487,0,0,0,.257,2.085,1.911,1.911,0,0,0,1.666,1.53,6.567,6.567,0,0,0,.9.075c2.888,0,2.5.679,2.959,2.826a15.926,15.926,0,0,1-.019,4.183c-.069,1.2-.3,2.382-.4,3.578-.193,2.4-.31,4.8-.529,7.2-.16,1.762-.787,2.428-2.576,2.826a32.458,32.458,0,0,1-7.013,1.265C268.64,614.04,268.305,614.026,267.967,613.994Zm-5.593-16.127c-.745,1.279-1.126,2.624-.039,3.919a2.949,2.949,0,0,1,.662,2.234,12.256,12.256,0,0,0,.011,1.809,1.544,1.544,0,0,0,1.544,1.532,5.144,5.144,0,0,0,.6.005,1.855,1.855,0,0,0,2-1.813c.073-.7.061-1.409.073-2.11A1.122,1.122,0,0,1,268,602.3c.664-.255,1.372-.552,1.457-1.364a5.451,5.451,0,0,0-.08-2.078,4.051,4.051,0,0,0-3.854-2.619q-.122-.007-.243-.007A3.2,3.2,0,0,0,262.374,597.867Zm-4.8,8.518.182.023-.074-.162Zm5.551-21.6a2.6,2.6,0,0,0-2.168,2.515c-.037.9-.359,1.774-.428,2.669-.159,2.148.137,2.215,1.876,1.877a15.51,15.51,0,0,1,2.4-.179c.9-.034,1.808-.01,2.713-.043,1.343-.045,1.462-.187,1.489-1.651.006-.3,0-.6,0-.906h-.01a4.764,4.764,0,0,1,0-.6c.242-1.905-.773-3.02-2.367-3.757a3.455,3.455,0,0,0-1.473-.318A6.647,6.647,0,0,0,263.123,584.781Z" transform="translate(-212.723 -566.359)"/>
</svg>